<svg width="141" height="46" viewBox="0 0 141 46" xmlns="http://www.w3.org/2000/svg" xmlns:xlink="http://www.w3.org/1999/xlink">
    <defs>
        <radialGradient cx="58.614%" cy="78.042%" fx="58.614%" fy="78.042%" r="105.088%" gradientTransform="matrix(1 0 0 .5 0 .39)" id="d0y8jv87db">
            <stop stop-color="#00BA78" offset="0%"/>
            <stop stop-color="#06F" offset="100%"/>
        </radialGradient>
        <path d="M0 0v6.7c7.885 0 14.3 6.415 14.3 14.3 0 2.67-.737 5.173-2.017 7.314l1.515 6.064a.677.677 0 0 1-.832.819l-6.134-1.638A14.215 14.215 0 0 1 0 35.299V42c5.61 0 10.883-2.184 14.85-6.15A20.862 20.862 0 0 0 21 20.999a20.86 20.86 0 0 0-6.15-14.848A20.863 20.863 0 0 0 0 0z" id="x7qtrwbt5a"/>
    </defs>
    <g fill="none" fill-rule="evenodd">
        <path d="M51.989 15.568v9.202c0 2.639.104 3.16.347 3.924.382 1.18 1.32 1.979 2.882 1.979 2.847 0 4.514-1.771 4.514-6.146v-8.96H63.1v17.71h-2.882c-.277-.694-.347-1.91-.347-2.743-1.042 1.944-2.674 3.195-5.59 3.195-1.841 0-3.994-.834-5-3.126-.487-1.11-.66-2.57-.66-4.687V15.568h3.368zm-22.57 13.126a2.49 2.49 0 0 1 2.501 2.5 2.49 2.49 0 0 1-2.5 2.5 2.49 2.49 0 0 1-2.5-2.5 2.49 2.49 0 0 1 2.5-2.5zM88.066 15.15c5 0 7.917 3.716 7.917 9.272 0 5.555-2.917 9.271-7.917 9.271s-7.917-3.716-7.917-9.271c0-5.556 2.917-9.272 7.917-9.272zM13.24 8.761c5.903 0 8.646 2.188 8.646 6.494 0 2.153-1.528 4.34-3.889 5.035 2.708.486 5.104 2.674 5.104 6.077 0 4.445-2.36 7.188-10 7.188-3.473 0-4.792-.139-6.598-.347V9.248c.833-.208 4.653-.486 6.737-.486zm26.978 1.668v5.139h4.375v2.674h-4.375v9.063c0 2.708.348 3.403 2.43 3.403.834 0 2.084-.313 2.5-.521v2.951c-.416.14-1.596.417-2.985.417-3.89 0-5.313-2.222-5.313-6.112v-9.201h-2.43v-2.674h2.43v-4.271c.347-.174 1.632-.695 3.368-.868zm32.43 0v5.139h4.376v2.674h-4.376v9.063c0 2.708.348 3.403 2.431 3.403.834 0 2.084-.313 2.5-.521v2.951c-.416.14-1.597.417-2.986.417-3.89 0-5.313-2.222-5.313-6.112v-9.201h-2.43v-2.674h2.43v-4.271c.347-.174 1.632-.695 3.368-.868zm35.625 4.792c.556 0 .972.07 1.25.139v3.298c-.625-.208-1.146-.312-1.702-.312-3.02 0-4.027 1.562-4.027 4.444v10.487h-3.369v-17.71h2.882c.278.695.313 1.46.313 2.293 1.007-1.563 2.847-2.64 4.653-2.64zm-20.208 2.778c-3.195 0-4.445 2.604-4.445 6.424 0 3.819 1.25 6.424 4.445 6.424 3.195 0 4.445-2.605 4.445-6.424 0-3.82-1.25-6.424-4.445-6.424zm-74.27 4.27h-3.82v8.092c1.112.104 2.084.138 4.168.138 4.166 0 5.347-1.875 5.347-4.201 0-2.327-1.32-4.028-5.695-4.028zm-.694-10.452c-1.111 0-2.014.105-3.125.278v7.258h2.847c4.097 0 5.452-1.806 5.452-4.028 0-2.222-1.077-3.508-5.174-3.508z" fill="#201925"/>
        <g transform="translate(111.503 1.762)">
            <mask id="2exv0ctycc" fill="#fff">
                <use xlink:href="#x7qtrwbt5a"/>
            </mask>
            <path d="M0 0v6.7c7.885 0 14.3 6.415 14.3 14.3 0 2.67-.737 5.173-2.017 7.314l1.515 6.064a.677.677 0 0 1-.832.819l-6.134-1.638A14.215 14.215 0 0 1 0 35.299V42c5.61 0 10.883-2.184 14.85-6.15A20.862 20.862 0 0 0 21 20.999a20.86 20.86 0 0 0-6.15-14.848A20.863 20.863 0 0 0 0 0z" fill="url(#d0y8jv87db)" mask="url(#2exv0ctycc)"/>
        </g>
    </g>
</svg>
